<svg width="14" height="14" viewBox="0 0 14 14" fill="none" xmlns="http://www.w3.org/2000/svg">
<path d="M11.6667 6.39999H2.33333C1.59695 6.39999 1 6.93725 1 7.59999V11.8C1 12.4627 1.59695 13 2.33333 13H11.6667C12.403 13 13 12.4627 13 11.8V7.59999C13 6.93725 12.403 6.39999 11.6667 6.39999Z" stroke="#191919" stroke-linecap="round" stroke-linejoin="round"/>
<path d="M3.66667 6.4V4C3.66667 3.20435 4.01786 2.44129 4.64298 1.87868C5.2681 1.31607 6.11595 1 7 1C7.88406 1 8.73191 1.31607 9.35703 1.87868C9.98215 2.44129 10.3333 3.20435 10.3333 4V6.4" stroke="#191919" stroke-linecap="round" stroke-linejoin="round"/>
</svg>
