<svg width="16" height="16" viewBox="0 0 16 16" fill="none" xmlns="http://www.w3.org/2000/svg">
<path d="M6.51479 3.8742C6.15757 3.94372 5.76642 4.17412 5.45908 4.71438C5.42672 4.77111 5.38344 4.82095 5.33173 4.86103C5.28001 4.90112 5.22087 4.93067 5.15768 4.94801C5.09448 4.96535 5.02848 4.97013 4.96343 4.96208C4.89838 4.95403 4.83556 4.9333 4.77856 4.90109C4.72156 4.86888 4.67149 4.8258 4.63122 4.77433C4.59094 4.72286 4.56125 4.664 4.54383 4.6011C4.52641 4.53821 4.52161 4.47252 4.52969 4.40777C4.53778 4.34303 4.55861 4.28051 4.59097 4.22378C5.03102 3.45312 5.65666 3.02905 6.32321 2.89995C6.94341 2.78337 7.58485 2.91198 8.11132 3.25847C8.59427 3.57626 8.98442 4.09567 8.9964 4.71835C9.00937 5.36885 8.61223 5.95578 7.87982 6.3868C7.3829 6.67878 7.18933 6.8774 7.10651 7.00949C7.03666 7.12072 7.02069 7.22201 7.02069 7.44845C7.02069 7.58014 6.96813 7.70645 6.87456 7.79957C6.781 7.89269 6.6541 7.94501 6.52178 7.94501C6.38945 7.94501 6.26255 7.89269 6.16899 7.79957C6.07542 7.70645 6.02286 7.58014 6.02286 7.44845C6.02286 7.17832 6.03683 6.84264 6.25935 6.48512C6.46889 6.15044 6.82711 5.8525 7.37193 5.53172C7.90577 5.2169 8.00256 4.91797 7.99956 4.73921C7.99458 4.53363 7.85787 4.28237 7.56052 4.08673C7.25265 3.88401 6.87786 3.80785 6.51479 3.8742V3.8742Z" fill="white"/>
<path d="M6.77123 10.4278C6.96971 10.4278 7.16006 10.3493 7.30041 10.2096C7.44076 10.0699 7.51961 9.8805 7.51961 9.68295C7.51961 9.48541 7.44076 9.29595 7.30041 9.15627C7.16006 9.01658 6.96971 8.93811 6.77123 8.93811C6.57275 8.93811 6.3824 9.01658 6.24205 9.15627C6.1017 9.29595 6.02286 9.48541 6.02286 9.68295C6.02286 9.8805 6.1017 10.0699 6.24205 10.2096C6.3824 10.3493 6.57275 10.4278 6.77123 10.4278Z" fill="white"/>
<path d="M6.52177 1.75741e-07C5.39072 -0.000262465 4.27926 0.293861 3.29769 0.85318C2.31612 1.4125 1.49858 2.21757 0.926195 3.18849C0.353807 4.15942 0.0464772 5.26244 0.0347035 6.3881C0.0229298 7.51375 0.307122 8.6229 0.859077 9.60547L0.0658002 11.6732C-0.00022736 11.845 -0.0169761 12.0318 0.0174225 12.2126C0.0518212 12.3934 0.136014 12.5611 0.260609 12.6971C0.385204 12.833 0.545301 12.9319 0.723039 12.9825C0.900777 13.0332 1.08917 13.0337 1.26719 12.9841L3.7488 12.2919C4.62788 12.7053 5.58909 12.9167 6.56133 12.9105C7.53358 12.9042 8.49198 12.6805 9.36565 12.2559C10.2393 11.8313 11.0059 11.2166 11.6086 10.4574C12.2114 9.69809 12.635 8.81366 12.848 7.86949C13.061 6.92531 13.058 5.94556 12.8392 5.0027C12.6204 4.05984 12.1914 3.178 11.584 2.42241C10.9766 1.66682 10.2063 1.0568 9.33004 0.637499C8.45379 0.218193 7.49404 0.000321034 6.52177 1.75741e-07V1.75741e-07ZM1.0337 6.45529C1.03414 5.26497 1.42525 4.10737 2.14752 3.15862C2.86979 2.20987 3.88367 1.52192 5.03492 1.19943C6.18616 0.876943 7.41174 0.937573 8.52517 1.3721C9.63861 1.80662 10.579 2.59125 11.2031 3.60661C11.8273 4.62197 12.1012 5.81246 11.983 6.99697C11.8648 8.18147 11.3611 9.29513 10.5486 10.1685C9.73597 11.0419 8.65897 11.6272 7.48143 11.8353C6.30388 12.0435 5.09025 11.8631 4.0252 11.3216L3.85157 11.2322L0.997775 12.0277L1.96467 9.50914L1.83695 9.30059C1.31024 8.44422 1.03221 7.45937 1.0337 6.45529V6.45529Z" fill="white"/>
<path d="M9.47834 15.89C8.5447 15.891 7.62189 15.6909 6.77327 15.3035C5.92464 14.9161 5.1703 14.3505 4.56203 13.6455C5.12381 13.7975 5.71253 13.8848 6.31821 13.9007C7.24251 14.5505 8.34674 14.8986 9.47834 14.8968C10.3784 14.8968 11.2265 14.6813 11.9749 14.301L12.1485 14.2116L15.0023 15.0071L14.0354 12.4885L14.1632 12.28C14.6721 11.4517 14.9664 10.4784 14.9664 9.43467C14.968 8.33186 14.6325 7.25466 14.0045 6.34606C13.9963 5.75525 13.9176 5.1675 13.77 4.59518C14.4604 5.20023 15.0132 5.94485 15.3916 6.77937C15.77 7.61389 15.9652 8.51912 15.9643 9.43467C15.9643 10.5778 15.6649 11.6523 15.14 12.5848L15.9343 14.6525C16.0002 14.8243 16.017 15.0109 15.9826 15.1916C15.9482 15.3723 15.8641 15.5399 15.7397 15.6758C15.6152 15.8118 15.4553 15.9106 15.2777 15.9614C15.1001 16.0122 14.9119 16.0129 14.7339 15.9634L12.2513 15.2712C11.4101 15.6685 10.4692 15.89 9.47735 15.89H9.47834Z" fill="white"/>
</svg>
